<svg width="137" height="30" viewBox="0 0 137 30" fill="none" xmlns="http://www.w3.org/2000/svg">
<path d="M9.00255 20.8621L4.7168 19.3112L4.69409 7.53516L8.97984 9.08599L8.98304 10.9071L8.98241 10.914L9.00255 20.8621Z" fill="#0D9488"/>
<path d="M8.97984 9.08682L4.69409 7.53599L21.0176 1.59961L25.3033 3.15044L11.5683 8.14615L11.5535 8.14977L8.97984 9.08682Z" fill="url(#paint0_linear_2006_23460)"/>
<path d="M9.00235 20.8628L8.98217 10.9148L8.9828 10.9079L8.97961 9.08676L11.5533 8.14972L11.568 8.14609L25.3031 3.15039L25.3057 4.93698L11.8309 10.0778L10.7965 10.453L10.7987 10.4677L10.7993 11.5724L10.8167 20.2033L9.00235 20.8628Z" fill="url(#paint1_linear_2006_23460)"/>
<path d="M20.9973 9.13792L25.2831 10.6888L25.3058 22.4648L21.02 20.914L21.0168 19.0929L21.0175 19.086L20.9973 9.13792Z" fill="#0D9488"/>
<path d="M21.02 20.9132L25.3058 22.464L8.98229 28.4004L4.69655 26.8496L18.4316 21.8539L18.4464 21.8502L21.02 20.9132Z" fill="url(#paint2_linear_2006_23460)"/>
<path d="M20.9974 9.13717L21.0176 19.0852L21.017 19.0921L21.0201 20.9132L18.4465 21.8503L18.4317 21.8539L4.69662 26.8496L4.69407 25.063L18.1689 19.9222L19.2032 19.547L19.201 19.5323L19.2004 18.4276L19.1831 9.79675L20.9974 9.13717Z" fill="url(#paint3_linear_2006_23460)"/>
<g clip-path="url(#clip0_2006_23460)">
<path d="M41.1862 25.8407C39.4719 25.8407 38.0432 25.5728 36.9003 25.0371C35.7574 24.5013 34.9002 23.7602 34.3287 22.8137C33.7572 21.8494 33.4626 20.7422 33.4447 19.4921H36.4449C36.4628 20.3136 36.6413 21.0368 36.9806 21.6619C37.3378 22.2691 37.8646 22.7334 38.5611 23.0548C39.2576 23.3763 40.1594 23.537 41.2666 23.537C42.1774 23.537 42.9721 23.4298 43.6507 23.2155C44.3293 22.9834 44.8561 22.6352 45.2311 22.1708C45.6061 21.7065 45.7937 21.1083 45.7937 20.3761C45.7937 19.8225 45.7044 19.3582 45.5258 18.9832C45.3472 18.6081 45.0525 18.2956 44.6418 18.0456C44.2489 17.7777 43.7221 17.5545 43.0614 17.3759C42.4185 17.1973 41.6148 17.0277 40.6505 16.867C39.5433 16.6705 38.5611 16.4384 37.7039 16.1705C36.8646 15.8848 36.1592 15.5365 35.5877 15.1258C35.0341 14.6972 34.6144 14.1793 34.3287 13.5721C34.043 12.9649 33.9001 12.2506 33.9001 11.4291C33.9001 10.2862 34.1858 9.29509 34.7573 8.45575C35.3288 7.61642 36.1502 6.97353 37.2217 6.52707C38.2932 6.08062 39.579 5.85739 41.0791 5.85739C42.5792 5.85739 43.856 6.09847 44.9097 6.58065C45.9633 7.04496 46.7759 7.70571 47.3473 8.5629C47.9188 9.40224 48.2045 10.4023 48.2045 11.5631H45.2579C45.2222 10.7773 45.0168 10.1344 44.6418 9.6344C44.2846 9.11651 43.7935 8.73256 43.1685 8.48254C42.5435 8.23253 41.8113 8.10752 40.972 8.10752C40.1148 8.10752 39.3826 8.2236 38.7754 8.45575C38.1682 8.68791 37.7039 9.01829 37.3825 9.44688C37.061 9.87548 36.9003 10.4112 36.9003 11.0541C36.9003 11.7149 37.061 12.2417 37.3825 12.6346C37.7039 13.0274 38.2486 13.3489 39.0165 13.5989C39.7844 13.8311 40.8291 14.0632 42.1506 14.2954C43.0078 14.4204 43.8382 14.599 44.6418 14.8311C45.4454 15.0633 46.1598 15.3847 46.7848 15.7955C47.4098 16.2062 47.9099 16.7687 48.2849 17.4831C48.6599 18.1795 48.8474 19.0903 48.8474 20.2154C48.8474 21.3226 48.5527 22.3048 47.9634 23.162C47.392 24.0013 46.5348 24.6621 45.3919 25.1442C44.2668 25.6085 42.8649 25.8407 41.1862 25.8407ZM55.9452 25.8407C55.088 25.8407 54.2933 25.671 53.5611 25.3317C52.8468 24.9924 52.2307 24.5103 51.7128 23.8852C51.1949 23.2602 50.7931 22.5012 50.5074 21.6083C50.2395 20.6975 50.1056 19.6618 50.1056 18.501C50.1056 16.9652 50.3467 15.6526 50.8288 14.5633C51.3289 13.4739 52.0164 12.6435 52.8915 12.072C53.7665 11.4827 54.7844 11.1881 55.9452 11.1881C56.731 11.1881 57.4453 11.3131 58.0882 11.5631C58.7311 11.8131 59.2758 12.1613 59.7222 12.6078C60.1865 13.0364 60.5169 13.5543 60.7133 14.1614H60.8741L60.9812 11.4291H63.6064V25.5996H60.9812L60.8741 22.8405H60.7133C60.3919 23.7334 59.8115 24.4567 58.9722 25.0103C58.1328 25.5639 57.1238 25.8407 55.9452 25.8407ZM56.8828 23.5638C57.7399 23.5638 58.4632 23.3673 59.0525 22.9745C59.6418 22.5816 60.0883 22.0637 60.3919 21.4208C60.6955 20.7779 60.8473 20.0725 60.8473 19.3046V17.6974C60.8473 16.9116 60.6865 16.1973 60.3651 15.5544C60.0615 14.9115 59.6151 14.4025 59.0257 14.0275C58.4543 13.6346 57.7578 13.4382 56.9363 13.4382C56.097 13.4382 55.3737 13.6436 54.7666 14.0543C54.1772 14.465 53.7219 15.0454 53.4004 15.7955C53.0968 16.5455 52.945 17.4473 52.945 18.501C52.945 19.5368 53.0968 20.4386 53.4004 21.2065C53.704 21.9744 54.1505 22.5637 54.7398 22.9745C55.3291 23.3673 56.0434 23.5638 56.8828 23.5638ZM66.8782 25.5996V13.6525H64.5745V11.4291H66.8782V9.36652C66.8782 8.27717 67.1996 7.4557 67.8425 6.90209C68.4854 6.34849 69.3783 6.07169 70.5212 6.07169H72.7178V8.13431H71.1641C70.5927 8.13431 70.1909 8.26824 69.9587 8.53612C69.7266 8.78613 69.6105 9.15222 69.6105 9.6344V11.4291H72.4767V13.6525H69.6105V25.5996H66.8782ZM78.8898 25.8407C77.5147 25.8407 76.3271 25.546 75.327 24.9567C74.3448 24.3495 73.5948 23.5013 73.0769 22.4119C72.559 21.3226 72.3001 20.0457 72.3001 18.5813C72.3001 17.0813 72.559 15.7776 73.0769 14.6704C73.5948 13.5632 74.3359 12.7149 75.3003 12.1256C76.2825 11.5184 77.4522 11.2148 78.8094 11.2148C80.2916 11.2148 81.5149 11.5541 82.4792 12.2328C83.4614 12.8935 84.1668 13.8132 84.5954 14.9918C85.024 16.1705 85.1848 17.5277 85.0776 19.0635H75.0056C75.0235 20.0993 75.1931 20.9654 75.5146 21.6619C75.836 22.3405 76.2825 22.8584 76.8539 23.2155C77.4432 23.5548 78.1219 23.7245 78.8898 23.7245C79.8184 23.7245 80.5684 23.5191 81.1399 23.1084C81.7292 22.6977 82.1221 22.153 82.3185 21.4744H84.9437C84.8008 22.3851 84.4526 23.1709 83.899 23.8316C83.3454 24.4745 82.64 24.9746 81.7828 25.3317C80.9256 25.671 79.9612 25.8407 78.8898 25.8407ZM75.0324 17.5366L74.7645 17.1884H82.64L82.3721 17.5634C82.39 16.5812 82.2471 15.7776 81.9435 15.1526C81.6578 14.5275 81.2381 14.0722 80.6845 13.7864C80.1488 13.4828 79.5237 13.331 78.8094 13.331C78.0593 13.331 77.4075 13.4918 76.8539 13.8132C76.3003 14.1347 75.8628 14.6079 75.5413 15.2329C75.2199 15.858 75.0502 16.6259 75.0324 17.5366ZM86.788 25.5996V6.07169H94.6635C96.5564 6.07169 98.1548 6.48243 99.4584 7.3039C100.78 8.10752 101.78 9.24151 102.459 10.7059C103.155 12.1703 103.503 13.8846 103.503 15.849C103.503 17.3134 103.307 18.6438 102.914 19.8403C102.521 21.0368 101.95 22.0637 101.2 22.9209C100.45 23.7781 99.5209 24.4388 98.4137 24.9031C97.3244 25.3675 96.0743 25.5996 94.6635 25.5996H86.788ZM89.7078 23.0816H94.2617C95.2082 23.0816 96.0653 22.9387 96.8333 22.653C97.6012 22.3494 98.2619 21.903 98.8155 21.3136C99.3691 20.7065 99.7888 19.9475 100.075 19.0367C100.378 18.1081 100.53 17.0277 100.53 15.7955C100.53 14.1347 100.262 12.7774 99.7263 11.7238C99.2084 10.6523 98.4762 9.86655 97.5297 9.36652C96.6011 8.84863 95.5117 8.58969 94.2617 8.58969H89.7078V23.0816ZM111.448 25.8407C110.073 25.8407 108.885 25.546 107.885 24.9567C106.903 24.3495 106.153 23.5013 105.635 22.4119C105.117 21.3226 104.858 20.0457 104.858 18.5813C104.858 17.0813 105.117 15.7776 105.635 14.6704C106.153 13.5632 106.894 12.7149 107.858 12.1256C108.841 11.5184 110.01 11.2148 111.367 11.2148C112.85 11.2148 114.073 11.5541 115.037 12.2328C116.019 12.8935 116.725 13.8132 117.153 14.9918C117.582 16.1705 117.743 17.5277 117.636 19.0635H107.564C107.582 20.0993 107.751 20.9654 108.073 21.6619C108.394 22.3405 108.841 22.8584 109.412 23.2155C110.001 23.5548 110.68 23.7245 111.448 23.7245C112.376 23.7245 113.126 23.5191 113.698 23.1084C114.287 22.6977 114.68 22.153 114.877 21.4744H117.502C117.359 22.3851 117.011 23.1709 116.457 23.8316C115.903 24.4745 115.198 24.9746 114.341 25.3317C113.484 25.671 112.519 25.8407 111.448 25.8407ZM107.59 17.5366L107.323 17.1884H115.198L114.93 17.5634C114.948 16.5812 114.805 15.7776 114.502 15.1526C114.216 14.5275 113.796 14.0722 113.243 13.7864C112.707 13.4828 112.082 13.331 111.367 13.331C110.617 13.331 109.966 13.4918 109.412 13.8132C108.858 14.1347 108.421 14.6079 108.099 15.2329C107.778 15.858 107.608 16.6259 107.59 17.5366ZM119.159 30.0731V11.4291H121.757L121.864 14.1882H122.025C122.346 13.2953 122.927 12.581 123.766 12.0452C124.623 11.4916 125.632 11.2148 126.793 11.2148C127.668 11.2148 128.463 11.3845 129.177 11.7238C129.891 12.0452 130.507 12.5185 131.025 13.1435C131.543 13.7686 131.936 14.5365 132.204 15.4472C132.49 16.358 132.633 17.3848 132.633 18.5278C132.633 20.0636 132.391 21.3851 131.909 22.4923C131.427 23.5816 130.749 24.412 129.873 24.9835C128.998 25.555 127.972 25.8407 126.793 25.8407C126.025 25.8407 125.32 25.7246 124.677 25.4925C124.034 25.2424 123.489 24.8942 123.043 24.4478C122.596 23.9834 122.257 23.4566 122.025 22.8673H121.918V30.0731H119.159ZM125.802 23.5906C126.659 23.5906 127.382 23.3941 127.972 23.0012C128.561 22.5905 129.016 22.0101 129.338 21.2601C129.659 20.4922 129.82 19.5814 129.82 18.5278C129.82 17.4741 129.659 16.5723 129.338 15.8223C129.034 15.0722 128.588 14.5007 127.998 14.1079C127.409 13.6971 126.695 13.4918 125.855 13.4918C125.016 13.4918 124.302 13.6882 123.712 14.0811C123.123 14.4561 122.677 14.9651 122.373 15.608C122.069 16.2509 121.918 16.9562 121.918 17.7242V19.3314C121.918 20.1171 122.069 20.8315 122.373 21.4744C122.677 22.1173 123.123 22.6352 123.712 23.028C124.302 23.4031 124.998 23.5906 125.802 23.5906Z" fill="#111827"/>
</g>
<defs>
<linearGradient id="paint0_linear_2006_23460" x1="25.2703" y1="3.15479" x2="4.69405" y2="7.52126" gradientUnits="userSpaceOnUse">
<stop stop-color="#00FFE3"/>
<stop offset="1" stop-color="#09524A"/>
</linearGradient>
<linearGradient id="paint1_linear_2006_23460" x1="25.2703" y1="3.15489" x2="7.46696" y2="4.86168" gradientUnits="userSpaceOnUse">
<stop stop-color="#00FFE3"/>
<stop offset="1" stop-color="#09524A"/>
</linearGradient>
<linearGradient id="paint2_linear_2006_23460" x1="4.72959" y1="26.8452" x2="25.3058" y2="22.4787" gradientUnits="userSpaceOnUse">
<stop stop-color="#00FFE3"/>
<stop offset="1" stop-color="#09524A"/>
</linearGradient>
<linearGradient id="paint3_linear_2006_23460" x1="4.72946" y1="26.8451" x2="22.5328" y2="25.1383" gradientUnits="userSpaceOnUse">
<stop stop-color="#00FFE3"/>
<stop offset="1" stop-color="#09524A"/>
</linearGradient>
<clipPath id="clip0_2006_23460">
<rect width="106.2" height="30" fill="white" transform="translate(30)"/>
</clipPath>
</defs>
</svg>
