<svg width="12" height="12" viewBox="0 0 12 12" fill="none" xmlns="http://www.w3.org/2000/svg">
<path d="M2.73793 8.1408C3.1737 8.31354 3.53498 8.63381 3.75872 9.04572C3.98247 9.45764 4.05447 9.93504 3.96217 10.3946C3.86987 10.8542 3.61912 11.2668 3.25369 11.5604C2.88825 11.8539 2.43133 12.0099 1.96266 12.001C1.49399 11.9921 1.04332 11.8189 0.689305 11.5116C0.335287 11.2044 0.100397 10.7826 0.0256223 10.3198C-0.0491525 9.85706 0.0409361 9.38274 0.280168 8.97962C0.519399 8.57651 0.892583 8.2702 1.3346 8.11414V3.88747C0.889604 3.7302 0.514537 3.42067 0.275693 3.0136C0.0368488 2.60652 -0.0503916 2.12812 0.0293919 1.66294C0.109175 1.19777 0.350845 0.775773 0.711685 0.471553C1.07252 0.167333 1.5293 0.000476346 2.00127 0.000476346C2.47323 0.000476346 2.93001 0.167333 3.29085 0.471553C3.65169 0.775773 3.89336 1.19777 3.97314 1.66294C4.05292 2.12812 3.96568 2.60652 3.72684 3.0136C3.488 3.42067 3.11293 3.7302 2.66793 3.88747V6.0008C3.22527 5.58214 3.91727 5.33414 4.66793 5.33414H7.3346C7.77334 5.33415 8.19992 5.18995 8.54866 4.92373C8.8974 4.6575 9.14896 4.28403 9.2646 3.8608C8.82672 3.6874 8.46404 3.36509 8.24042 2.9506C8.01681 2.5361 7.94658 2.05601 8.04212 1.59484C8.13765 1.13366 8.39282 0.720976 8.76269 0.429429C9.13257 0.137881 9.59344 -0.0138339 10.0642 0.000992283C10.5349 0.0158185 10.9853 0.196236 11.3361 0.510482C11.6869 0.824727 11.9156 1.25265 11.9819 1.71893C12.0482 2.1852 11.9479 2.65992 11.6987 3.05952C11.4494 3.45912 11.0672 3.75797 10.6193 3.90347C10.485 4.67726 10.0819 5.37881 9.48098 5.88446C8.88007 6.39012 8.11995 6.66741 7.3346 6.66747H4.66793C4.22919 6.66745 3.80261 6.81166 3.45387 7.07788C3.10513 7.3441 2.85358 7.71758 2.73793 8.1408ZM2.00127 9.33414C1.82446 9.33414 1.65489 9.40437 1.52986 9.5294C1.40484 9.65442 1.3346 9.82399 1.3346 10.0008C1.3346 10.1776 1.40484 10.3472 1.52986 10.4722C1.65489 10.5972 1.82446 10.6675 2.00127 10.6675C2.17808 10.6675 2.34765 10.5972 2.47267 10.4722C2.59769 10.3472 2.66793 10.1776 2.66793 10.0008C2.66793 9.82399 2.59769 9.65442 2.47267 9.5294C2.34765 9.40437 2.17808 9.33414 2.00127 9.33414ZM2.00127 1.33413C1.82446 1.33413 1.65489 1.40437 1.52986 1.5294C1.40484 1.65442 1.3346 1.82399 1.3346 2.0008C1.3346 2.17761 1.40484 2.34718 1.52986 2.47221C1.65489 2.59723 1.82446 2.66747 2.00127 2.66747C2.17808 2.66747 2.34765 2.59723 2.47267 2.47221C2.59769 2.34718 2.66793 2.17761 2.66793 2.0008C2.66793 1.82399 2.59769 1.65442 2.47267 1.5294C2.34765 1.40437 2.17808 1.33413 2.00127 1.33413ZM10.0013 1.33413C9.82446 1.33413 9.65489 1.40437 9.52986 1.5294C9.40484 1.65442 9.3346 1.82399 9.3346 2.0008C9.3346 2.17761 9.40484 2.34718 9.52986 2.47221C9.65489 2.59723 9.82446 2.66747 10.0013 2.66747C10.1781 2.66747 10.3476 2.59723 10.4727 2.47221C10.5977 2.34718 10.6679 2.17761 10.6679 2.0008C10.6679 1.82399 10.5977 1.65442 10.4727 1.5294C10.3476 1.40437 10.1781 1.33413 10.0013 1.33413Z" fill="#1C2024"/>
</svg>
